<?xml version="1.0" encoding="utf-8"?>
<!-- Generator: Adobe Illustrator 16.0.4, SVG Export Plug-In . SVG Version: 6.00 Build 0)  -->
<!DOCTYPE svg PUBLIC "-//W3C//DTD SVG 1.0//EN" "http://www.w3.org/TR/2001/REC-SVG-20010904/DTD/svg10.dtd">
<svg version="1.0" id="Layer_1" xmlns="http://www.w3.org/2000/svg" xmlns:xlink="http://www.w3.org/1999/xlink" x="0px" y="0px"
	 width="443px" height="128px" viewBox="0 0 443 128" enable-background="new 0 0 443 128" xml:space="preserve">
<g>
	<path fill="#B7B7B7" d="M194,24.473C194,18.689,189.311,14,183.526,14H38.474C32.689,14,28,18.689,28,24.473v80.054
		C28,110.311,32.689,115,38.474,115h145.053c5.784,0,10.474-4.689,10.474-10.473V24.473z M158.342,35.055
		c1.555,0.133,3.107,0.397,4.621,0.783l-0.795,2.974c-0.16-0.041-0.324-0.076-0.485-0.113c-0.14-0.033-0.278-0.067-0.417-0.097
		c-0.219-0.047-0.438-0.088-0.658-0.129c-0.132-0.025-0.264-0.053-0.396-0.076c-0.243-0.042-0.486-0.076-0.73-0.111
		c-0.112-0.016-0.224-0.035-0.335-0.05c-0.357-0.046-0.715-0.085-1.073-0.116c-1.491-0.128-2.924-0.128-4.414,0
		c-0.13,0.011-0.261,0.023-0.391,0.037c-0.094,0.01-0.188,0.02-0.282,0.03c-0.022,0.002-0.044,0.005-0.066,0.008
		c-0.065,0.007-0.129,0.019-0.193,0.026c-0.057,0.007-0.115,0.011-0.172,0.019c-0.098,0.013-0.194,0.03-0.292,0.044
		c-0.2,0.028-0.4,0.058-0.599,0.091c-0.155,0.025-0.308,0.797-0.462,0.826C151.099,39.22,150.995,40,150.891,40c0,0-0.001,0-0.002,0
		c-0.004,0-0.889-1.424-0.889-1.423v0.009c0,0.011,0.285,0,0.224,0.013c-0.257,0.054-0.733,0.192-0.987,0.254
		c-0.1,0.023-0.49,0.147-0.49,0.147h-0.015l0.164-0.027c-0.003,0.001-0.327-0.045-0.331-0.044L148,38.945v0.001
		c0,0.042,0.226,0.091,0.075,0.136c-0.148,0.044-0.033,0.086-0.18,0.134c-0.207,0.065-0.279,0.137-0.483,0.208
		c-0.133,0.046-0.201,0.09-0.335,0.138c-0.23,0.084-0.425,0.175-0.653,0.266c-0.104,0.042-0.193,0.08-0.297,0.123
		c-0.332,0.137-0.652,0.28-0.977,0.431c-0.161,0.075-0.318,0.151-0.478,0.23c-0.086,0.042-0.169,0.088-0.255,0.132
		c-0.074,0.038-0.148,0.073-0.221,0.111c-0.051,0.027-0.101,0.055-0.152,0.082c-0.171,0.09-0.341,0.184-0.511,0.277
		c-0.093,0.052-0.188,0.102-0.28,0.155c-0.036,0.021-0.071,0.041-0.107,0.061c-0.169,0.099-0.337,0.202-0.505,0.304
		c-0.093,0.056-0.186,0.111-0.277,0.168c-0.03,0.019-0.059,0.037-0.089,0.056c-0.055,0.035-0.108,0.071-0.163,0.106
		c-0.19,0.123-0.381,0.245-0.568,0.373l-2.064-2.951l-0.214,0.149c-1.311,0.915-2.55,1.941-3.688,3.053l-2.174-2.176
		c1.262-1.235,2.64-2.377,4.099-3.396c1.523-1.064,3.15-2.001,4.837-2.786c1.687-0.785,3.451-1.426,5.244-1.903
		c1.794-0.477,3.644-0.8,5.496-0.959c1.79-0.154,3.527-0.161,5.313-0.021l-0.312,3.586L158.342,35.055z M147.963,47.026
		c-0.867,0.417-1.71,0.908-2.507,1.461c-0.872,0.607-1.691,1.287-2.434,2.023c-0.74,0.732-1.429,1.546-2.049,2.417
		c-0.568,0.801-1.071,1.642-1.496,2.502l-2.788-1.301c0.504-1.031,1.095-2.028,1.761-2.965l0.152-0.215l-2.943-2.062
		c0.09-0.125,0.183-0.249,0.276-0.373c0.091-0.12,0.18-0.241,0.272-0.36c0.13-0.166,0.265-0.329,0.398-0.493
		c0.089-0.107,0.176-0.217,0.266-0.323c0.153-0.18,0.312-0.355,0.469-0.531c0.077-0.085,0.151-0.173,0.23-0.258
		c0.239-0.258,0.482-0.511,0.731-0.759c1.02-1.012,2.139-1.945,3.326-2.773c1.184-0.826,2.446-1.553,3.75-2.158
		c0.251-0.117,0.507-0.226,0.763-0.334c0.095-0.04,0.189-0.082,0.285-0.121c0.086-0.035,0.173-0.067,0.259-0.101
		c0.169-0.067,0.338-0.134,0.509-0.197c0.049-0.018,0.096-0.038,0.145-0.055c0.129-0.047,0.26-0.089,0.39-0.134
		c0.194-0.067,0.388-0.135,0.584-0.197c0.146-0.047,0.294-0.088,0.442-0.132c0.146-0.043,0.292-0.086,0.438-0.127l0.795,2.969
		c-1.13,0.315-2.242,0.725-3.311,1.221l-0.238,0.11L147.963,47.026z M140.725,43.026c-0.122,0.09-0.245,0.18-0.365,0.272
		c-0.172,0.132-0.34,0.27-0.509,0.406c-0.111,0.089-0.223,0.177-0.332,0.268c-0.184,0.154-0.363,0.313-0.542,0.472
		c-0.088,0.079-0.18,0.155-0.268,0.235c-0.264,0.241-0.523,0.487-0.776,0.738c-0.076,0.076-0.151,0.151-0.226,0.228
		c-0.004,0.004-0.008,0.008-0.012,0.012c0,0,0,0,0,0c-0.014,0.015-0.027,0.029-0.042,0.043c-0.002,0.002-0.005,0.005-0.007,0.007
		c-0.042,0.044-0.081,0.092-0.124,0.136c-0.385,0.402-0.762,0.813-1.122,1.239c-0.024,0.028-0.046,0.058-0.069,0.086
		c-0.085,0.102-0.167,0.206-0.25,0.309c-0.259,0.32-0.51,0.854-0.753,1.184c-0.033,0.045-0.07,0.34-0.102,0.34h-0.001l-0.147-0.002
		c-0.001,0.002,0.036-0.101,0.035-0.1l-0.114,0.1v0.006c0,0.138-0.223,0.283-0.317,0.424c-0.079,0.12-0.179,0.239-0.256,0.36
		c-0.121,0.188-0.245,0.382-0.361,0.574c-0.07,0.117-0.147,0.231-0.216,0.349c-0.123,0.212-0.242,0.427-0.358,0.642
		c-0.055,0.101-0.114,0.201-0.168,0.303c-0.167,0.318-0.329,0.639-0.481,0.962c-0.038,0.081-0.076,0.163-0.114,0.244
		c-0.028,0.061-0.057,0.122-0.084,0.183c-0.01,0.023-0.021,0.046-0.03,0.068c-0.007,0.015,0.215,0.029,0.208,0.043
		c-0.017,0.039,0.177,0.078,0.177,0.117c0,0.001,0,0.001,0,0.002c0,0.047-0.268,0.096-0.288,0.144
		c-0.027,0.062-0.17,0.123-0.196,0.185c-0.048,0.114-0.148,0.23-0.194,0.345c-0.009,0.02-0.045,0.04-0.053,0.06
		c-0.058,0.144-0.132,0.287-0.187,0.431c-0.021,0.055-0.05,0.11-0.07,0.166c-0.053,0.142-0.104,0.285-0.155,0.427
		c-0.006,0.017-0.013,0.033-0.019,0.05c-0.039,0.109-0.083,0.219-0.12,0.329c-0.007,0.019-0.012,0.039-0.019,0.059
		c-0.017,0.05-0.033,0.101-0.049,0.151c-0.05,0.153-0.095,0.308-0.142,0.462c-0.045,0.147-0.094,0.294-0.136,0.441l-3.477-0.931
		l-0.068,0.251c-0.419,1.541-0.713,3.129-0.873,4.727l-3.062-0.269c0.175-1.771,0.5-3.537,0.965-5.253
		c0.49-1.801,1.141-3.568,1.935-5.252c0.797-1.69,1.745-3.316,2.817-4.833c1.017-1.441,2.167-2.814,3.423-4.084l2.543,2.545
		l0.185-0.185c1.105-1.1,2.312-2.117,3.591-3.027l1.763,2.521C140.982,42.83,140.854,42.93,140.725,43.026z M131.342,58.97
		c0.045-0.246,0.097-0.49,0.149-0.734c0.021-0.098,0.039-0.197,0.061-0.295c0.078-0.344,0.163-0.686,0.255-1.025l0.001-0.003
		c0.379-1.389,0.885-2.758,1.506-4.071c0.12-0.252,0.248-0.502,0.376-0.751c0.041-0.08,0.08-0.16,0.122-0.239
		c0.043-0.082,0.089-0.162,0.133-0.243c0.115-0.211,0.23-0.423,0.351-0.632c0.069-0.12,0.143-0.236,0.214-0.354
		c0.11-0.183,0.22-0.366,0.334-0.545c0.081-0.126,0.165-0.249,0.247-0.374c0.087-0.131,0.175-0.261,0.264-0.39l2.515,1.762
		c-0.671,0.971-1.266,2.002-1.77,3.066l-0.113,0.238l3.264,1.522c-0.401,0.876-0.735,1.797-0.995,2.741
		c-0.284,1.031-0.478,2.084-0.576,3.131c-0.056,0.608-0.083,1.176-0.083,1.736c0,0.441,0.02,0.902,0.062,1.449
		c0.084,1.08,0.26,2.139,0.521,3.148c0.241,0.932,0.565,1.863,0.966,2.773l-2.791,1.303c-0.469-1.055-0.854-2.155-1.144-3.274
		l-0.067-0.256l-3.471,0.932c-0.036-0.146-0.07-0.291-0.104-0.437c-0.036-0.154-0.073-0.308-0.106-0.464
		c-0.043-0.205-0.081-0.41-0.118-0.616c-0.026-0.14-0.055-0.28-0.078-0.421c-0.039-0.234-0.071-0.47-0.104-0.705
		c-0.016-0.114-0.035-0.228-0.049-0.342c-0.043-0.351-0.08-0.702-0.108-1.053c-0.055-0.679-0.083-1.364-0.083-2.037
		c0-0.759,0.036-1.538,0.108-2.315c0.023-0.251,0.055-0.501,0.085-0.752c0.018-0.144,0.034-0.288,0.054-0.432
		c0.03-0.215,0.066-0.43,0.102-0.645C131.299,59.234,131.318,59.102,131.342,58.97z M134.775,69.295
		c0.313,1.146,0.722,2.271,1.216,3.346l0.11,0.24l3.266-1.525c0.423,0.889,0.917,1.742,1.47,2.543
		c0.609,0.882,1.296,1.712,2.042,2.467c0.742,0.75,1.564,1.447,2.444,2.07c0.874,0.621,1.804,1.166,2.767,1.621
		c0.89,0.418,1.817,0.766,2.761,1.035l-0.796,2.976c-1.118-0.315-2.214-0.726-3.263-1.22c-1.126-0.53-2.215-1.165-3.233-1.885
		l-0.215-0.151l-2.059,2.943c-0.121-0.087-0.241-0.177-0.36-0.267c-0.128-0.096-0.258-0.19-0.384-0.289
		c-0.152-0.119-0.301-0.243-0.451-0.365c-0.125-0.102-0.25-0.202-0.372-0.306c-0.161-0.137-0.316-0.278-0.474-0.419
		c-0.106-0.095-0.214-0.188-0.319-0.284c-0.259-0.24-0.513-0.484-0.762-0.734c-1.024-1.036-1.963-2.165-2.79-3.356
		c-0.83-1.197-1.559-2.472-2.167-3.789c-0.126-0.273-0.244-0.551-0.359-0.829c-0.06-0.142-0.116-0.284-0.173-0.428
		c-0.002-0.005-0.003-0.009-0.005-0.014c-0.072-0.181-0.142-0.362-0.208-0.546c-0.048-0.131-0.095-0.262-0.14-0.393
		c-0.015-0.043-0.029-0.085-0.043-0.127c-0.048-0.141-0.095-0.279-0.14-0.42c-0.089-0.278-0.173-0.557-0.253-0.837
		c-0.024-0.088-0.05-0.175-0.075-0.263L134.775,69.295z M143.472,81.541c0.981,0.676,2.021,1.274,3.097,1.78
		c1.156,0.544,2.368,0.989,3.603,1.321l0.253,0.069l0.932-3.484c0.949,0.242,1.925,0.407,2.906,0.491
		c1.144,0.102,2.06,0.102,3.208,0c0.809-0.069,1.613-0.194,2.402-0.371c0.27-0.06,0.537-0.124,0.802-0.196
		c1.041-0.28,2.042-0.649,2.998-1.101c0.885-0.417,1.728-0.907,2.526-1.457l1.761,2.519c-0.957,0.659-1.973,1.242-3.02,1.735
		l-0.236,0.111l1.52,3.259c-0.143,0.065-0.286,0.128-0.43,0.19c-0.072,0.031-0.144,0.063-0.216,0.094
		c-0.084,0.036-0.167,0.072-0.251,0.106c-0.185,0.076-0.371,0.147-0.558,0.219c-0.059,0.022-0.117,0.046-0.176,0.067
		c-0.075,0.028-0.151,0.059-0.228,0.087c-0.229,0.082-0.46,0.159-0.691,0.235c-0.098,0.032-0.193,0.068-0.291,0.099
		c-0.341,0.107-0.683,0.208-1.026,0.3l-0.021,0.006c-0.156,0.042-0.315,0.077-0.474,0.116c-0.195,0.048-0.391,0.1-0.588,0.144
		c-0.172,0.037-0.347,0.068-0.521,0.104c-0.181,0.036-0.361,0.075-0.542,0.107c-0.201,0.035-0.403,0.062-0.604,0.093
		c-0.157,0.023-0.313,0.052-0.471,0.072c-0.359,0.048-0.721,0.087-1.082,0.119c-1.481,0.128-2.898,0.128-4.373,0
		c-0.294-0.026-0.587-0.061-0.879-0.097c-0.097-0.012-0.193-0.022-0.29-0.035c-0.333-0.045-0.666-0.095-0.996-0.153
		c-0.031-0.005-0.061-0.013-0.091-0.018c-0.298-0.054-0.596-0.113-0.891-0.178c-0.108-0.023-0.215-0.049-0.322-0.074
		c-0.275-0.063-0.55-0.129-0.821-0.201l-0.011-0.003c-0.002-0.001-0.003-0.001-0.005-0.002c-0.203-0.055-0.404-0.117-0.606-0.177
		c-0.154-0.046-0.309-0.088-0.462-0.137c-0.204-0.064-0.404-0.137-0.606-0.207c-0.141-0.049-0.284-0.094-0.424-0.146
		c-0.212-0.077-0.42-0.162-0.629-0.246c-0.127-0.051-0.257-0.098-0.384-0.151c-0.334-0.14-0.665-0.286-0.991-0.44
		c-0.243-0.114-0.484-0.237-0.724-0.359c-0.092-0.048-0.187-0.094-0.279-0.142c-0.102-0.054-0.202-0.111-0.304-0.167
		c-0.189-0.104-0.38-0.206-0.568-0.314c-0.136-0.079-0.27-0.163-0.404-0.244c-0.168-0.102-0.337-0.202-0.502-0.308
		c-0.137-0.088-0.27-0.179-0.405-0.269c-0.125-0.083-0.249-0.166-0.372-0.251L143.472,81.541z M165.397,83.209
		c1.069-0.52,2.104-1.131,3.077-1.818l0.213-0.15l-2.064-2.952c0.795-0.58,1.548-1.214,2.239-1.912
		c0.69-0.697,1.314-1.457,1.884-2.259l5.461,3.827c-0.098,0.137-0.197,0.272-0.297,0.407c-0.083,0.111-0.164,0.225-0.248,0.336
		c-0.137,0.178-0.277,0.352-0.418,0.525c-0.083,0.102-0.164,0.205-0.248,0.307c-0.155,0.186-0.316,0.367-0.476,0.549
		c-0.075,0.084-0.147,0.17-0.223,0.254c-0.237,0.261-0.479,0.518-0.728,0.768c-1.027,1.034-2.148,1.983-3.334,2.822
		c-0.289,0.204-0.582,0.401-0.881,0.594c-0.096,0.062-0.193,0.119-0.29,0.179c-0.204,0.128-0.408,0.256-0.616,0.378
		c-0.117,0.069-0.238,0.134-0.357,0.201c-0.189,0.107-0.379,0.215-0.571,0.316c-0.13,0.068-0.261,0.133-0.391,0.198
		c-0.144,0.073-0.288,0.146-0.434,0.216L165.397,83.209z M165.73,58.474c-0.25-0.489-0.541-0.964-0.866-1.417
		c-0.323-0.452-0.679-0.878-1.059-1.268l5.09-5.093l-0.187-0.185c-0.748-0.739-1.566-1.42-2.436-2.023
		c-0.795-0.553-1.637-1.044-2.506-1.462l1.302-2.793c1.034,0.496,2.032,1.078,2.97,1.732l0.215,0.149l2.061-2.946
		c0.13,0.093,0.26,0.188,0.389,0.284c0.115,0.086,0.232,0.17,0.347,0.258c0.169,0.13,0.335,0.265,0.5,0.399
		c0.108,0.087,0.217,0.172,0.323,0.261c0.18,0.151,0.354,0.307,0.529,0.462c0.088,0.078,0.178,0.153,0.264,0.231
		c0.26,0.237,0.515,0.478,0.764,0.725c1.027,1.021,1.969,2.134,2.799,3.307c0.201,0.285,0.396,0.575,0.587,0.869
		c0.067,0.104,0.13,0.212,0.196,0.317c0.12,0.193,0.24,0.385,0.356,0.582c0.071,0.122,0.139,0.246,0.208,0.368
		c0.104,0.185,0.209,0.37,0.309,0.557c0.067,0.127,0.131,0.255,0.196,0.383c0.073,0.145,0.147,0.289,0.218,0.435L165.73,58.474z
		 M168.124,45.387c-0.972-0.661-2.004-1.246-3.07-1.741l-0.237-0.11l-1.523,3.269c-0.887-0.396-1.806-0.722-2.736-0.969
		c-1.007-0.266-2.053-0.447-3.111-0.539c-1.14-0.098-2.026-0.098-3.159,0c-1.059,0.091-2.106,0.272-3.114,0.539
		c-0.924,0.246-1.843,0.572-2.734,0.969l-1.301-2.793c1.047-0.47,2.135-0.856,3.238-1.149l0.253-0.067l-0.929-3.474
		c0.147-0.037,0.294-0.072,0.442-0.107c0.148-0.034,0.294-0.071,0.443-0.103c0.204-0.044,0.41-0.083,0.616-0.121
		c0.138-0.026,0.274-0.055,0.412-0.079c0.23-0.04,0.463-0.073,0.696-0.106c0.115-0.017,0.23-0.036,0.345-0.051
		c0.349-0.045,0.699-0.083,1.049-0.114c1.46-0.125,2.862-0.125,4.323,0c1.442,0.125,2.872,0.374,4.249,0.74l0.011,0.003
		c0.229,0.061,0.458,0.131,0.687,0.199c0.117,0.035,0.237,0.066,0.355,0.104c0.225,0.07,0.445,0.148,0.668,0.225
		c0.119,0.042,0.239,0.079,0.357,0.122c0.226,0.082,0.447,0.171,0.67,0.259c0.112,0.045,0.227,0.085,0.339,0.131
		c0.333,0.138,0.663,0.282,0.989,0.434c0.195,0.091,0.387,0.189,0.58,0.285c0.422,0.209,0.84,0.428,1.25,0.662
		c0.014,0.007,0.025,0.014,0.039,0.021c0.036,0.021,0.072,0.044,0.109,0.065c0.404,0.234,0.801,0.481,1.191,0.737
		c0.121,0.08,0.243,0.16,0.363,0.242L168.124,45.387z M150.855,38.634c0,0,0.002,0.001,0.002,0.001c0,0,0,0-0.001,0
		S150.856,38.634,150.855,38.634z M123.846,60.826l3.583,0.314l0.023-0.26c0.143-1.566,0.417-3.127,0.814-4.644l2.969,0.796
		c-0.042,0.16-0.077,0.322-0.115,0.483c-0.034,0.143-0.071,0.284-0.103,0.427c-0.048,0.218-0.09,0.437-0.133,0.656
		c-0.026,0.134-0.055,0.269-0.079,0.403c-0.043,0.243-0.08,0.487-0.116,0.731c-0.017,0.112-0.037,0.225-0.052,0.338
		c-0.048,0.357-0.089,0.716-0.122,1.076c-0.073,0.793-0.11,1.589-0.11,2.363c0,0.688,0.028,1.387,0.084,2.079
		c0.008,0.107,0.018,0.214,0.028,0.32c0.016,0.17,0.038,0.341,0.057,0.511c0.014,0.119,0.025,0.238,0.041,0.356
		c0.038,0.297,0.082,0.593,0.13,0.888c0.008,0.049,0.014,0.098,0.022,0.146c0.059,0.345,0.125,0.689,0.198,1.031
		c0.021,0.098,0.045,0.833,0.067,0.93c0.044,0.196,0.086,1.229,0.135,1.229h-0.001l0.061-0.408c0.002,0.007,0.003-0.307,0.005-0.299
		c0.002,0.01,0.356,0.035,0.359,0.045l0.41,0.27v-0.015c0,0-0.332-0.114-0.322-0.081c0.001,0.004-0.173-0.083-0.172-0.078
		c0.01,0.033-0.068,0.021-0.059,0.055c0.001,0.004-0.042-0.016-0.042-0.014c0.03,0.106,0.042,0.199,0.074,0.305
		c0.023,0.079,0.033,0.154,0.058,0.233c0.016,0.052,0.028,0.101,0.045,0.153c0.059,0.188,0.119,0.374,0.183,0.562
		c0.035,0.103,0.066,0.205,0.103,0.308c0.013,0.037,0.025,0.076,0.04,0.113c0.066,0.186,0.138,0.369,0.209,0.554
		c0.04,0.104,0.078,0.208,0.119,0.312c0.012,0.03,0.024,0.061,0.036,0.091c0.032,0.077,0.066,0.153,0.098,0.23
		c0.083,0.198,0.165,0.396,0.252,0.591l-3.261,1.523l0.109,0.236c0.673,1.461,1.472,2.871,2.376,4.197l-2.519,1.765
		c-1.005-1.471-1.894-3.036-2.644-4.659c-0.785-1.7-1.424-3.478-1.899-5.283c-0.472-1.801-0.789-3.662-0.944-5.532
		c-0.072-0.896-0.109-1.792-0.109-2.664C123.733,62.635,123.771,61.733,123.846,60.826z M130.562,81.422l2.012-1.409l-0.149-0.214
		c-0.898-1.293-1.693-2.669-2.368-4.096l0.973-0.454l1.812-0.847c0.067,0.142,0.141,0.281,0.211,0.422
		c0.07,0.143,0.14,0.286,0.212,0.428c0.097,0.186,0.2,0.37,0.302,0.555c0.073,0.131,0.143,0.265,0.218,0.396
		c0.117,0.204,0.24,0.403,0.363,0.604c0.066,0.108,0.129,0.218,0.196,0.324c0.193,0.305,0.392,0.606,0.597,0.902
		c0.845,1.218,1.803,2.37,2.849,3.427c0.045,0.046,0.09,0.091,0.136,0.136c0.012,0.013,0.024,0.025,0.037,0.037
		c0.002,0.002,0.004,0.004,0.007,0.006c0.131,0.13,0.268,0.256,0.402,0.383c0.075,0.071,0.147,0.146,0.223,0.216
		c0.016,0.015,0.033,0.027,0.049,0.043c0.243,0.223,0.49,0.44,0.74,0.654c0.046,0.039,0.092,0.077,0.138,0.115
		c0.239,0.2,0.481,0.397,0.726,0.588c0.098,0.076-0.386,0.148-0.287,0.223c0.145,0.11-0.147,0.222-0.147,0.328v0.001l0.796,0.15
		c0.011,0.009-0.221,0.017-0.21,0.024l-0.062,0.128V84.49c0,0.092,0.804,0.178,0.939,0.267c0.128,0.086,0.524,0.173,0.655,0.257
		c0.185,0.118,0.507,0.23,0.695,0.344c0.122,0.073,0.309,0.148,0.432,0.22c0.214,0.124,0.465,0.241,0.683,0.359
		c0.101,0.055,0.217,0.112,0.318,0.165c0.321,0.168,0.653,0.33,0.98,0.483c0.078,0.037,0.161,0.074,0.239,0.109
		c0.017,0.008,0.036,0.016,0.052,0.023c0.126,0.058,0.258,0.11,0.386,0.166c0.106,0.047,0.212,0.097,0.319,0.141
		c0.036,0.016,0.072,0.029,0.108,0.045c0.172,0.07,0.347,0.138,0.521,0.205c0.127,0.049,0.253,0.101,0.381,0.148
		c0.026,0.009,0.051,0.02,0.078,0.029c0.182,0.066,0.366,0.127,0.549,0.188c0.115,0.039,0.229,0.081,0.344,0.118
		c0.031,0.011,0.063,0.021,0.094,0.03c0.105,0.034,0.212,0.062,0.317,0.095c0.186,0.058,0.371,0.116,0.557,0.168l-0.796,2.975
		c-1.518-0.424-3.01-0.979-4.439-1.649l-0.238-0.112l-1.521,3.264c-1.616-0.776-3.17-1.689-4.623-2.717
		c-1.536-1.085-2.98-2.307-4.294-3.63c-1.26-1.27-2.418-2.649-3.447-4.104L130.562,81.422z M143.766,89.961
		c1.463,0.672,2.99,1.224,4.541,1.641l0.253,0.068l0.932-3.482c0.156,0.041,0.315,0.074,0.473,0.112
		c0.149,0.035,0.298,0.072,0.448,0.105c0.209,0.046,0.42,0.085,0.631,0.126c0.145,0.027,0.289,0.059,0.434,0.084
		c0.234,0.04,0.468,0.074,0.703,0.107c0.125,0.019,0.248,0.04,0.373,0.057c0.359,0.046,0.72,0.086,1.081,0.118
		c0.753,0.064,1.504,0.098,2.231,0.098c0.726,0,1.477-0.033,2.232-0.098c0.082-0.008,0.163-0.015,0.244-0.022
		c0.048-0.005,0.096-0.01,0.144-0.015c0.128-0.014,0.255-0.031,0.383-0.047c0.104-0.012,0.208-0.021,0.311-0.035
		c0.045-0.005,0.089-0.013,0.134-0.019c0.192-0.026,0.383-0.057,0.575-0.088c0.121-0.02,0.242-0.036,0.363-0.057
		c0.033-0.006,0.066-0.011,0.099-0.018c0.198-0.034,0.394-0.075,0.589-0.115c0.108-0.021,0.217-0.041,0.325-0.064
		c0.032-0.007,0.063-0.014,0.095-0.021c0.109-0.024,0.218-0.053,0.326-0.078c0.186-0.043,0.37-0.084,0.553-0.132l0.934,3.482
		l0.253-0.068c1.636-0.441,3.244-1.03,4.779-1.751c1.461-0.688,2.867-1.498,4.183-2.409l1.764,2.52
		c-1.463,1.016-3.026,1.917-4.648,2.68c-1.699,0.797-3.477,1.447-5.283,1.934c-1.807,0.485-3.671,0.813-5.54,0.976
		c-1.89,0.165-3.738,0.164-5.626,0c-1.871-0.162-3.735-0.491-5.541-0.976c-1.723-0.464-3.42-1.076-5.047-1.823L143.766,89.961z
		 M172.515,86.711l-0.214,0.152c-1.354,0.955-2.806,1.801-4.319,2.514c-1.429,0.67-2.921,1.226-4.44,1.649l-0.797-2.975
		c0.016-0.004,0.032-0.009,0.048-0.013c0.002,0,0.003-0.001,0.005-0.002c0.025-0.007,0.049-0.014,0.074-0.021
		c0.007-0.001,0.014-0.003,0.02-0.005c0.143-0.04,0.282-0.087,0.424-0.13c0.115-0.035,0.231-0.068,0.347-0.106
		c0.036-0.012,0.075-0.022,0.111-0.034c0.219-0.071,0.436-0.149,0.652-0.227c0.078-0.027,0.155-0.053,0.233-0.08
		c0.021-0.009,0.043-0.017,0.064-0.024c0.08-0.029,0.158-0.063,0.238-0.093c0.223-0.086,0.445-0.172,0.666-0.264
		c0.022-0.01,0.045-0.018,0.067-0.027c0.1-0.042-0.29-0.088-0.19-0.131c0.152-0.065-0.031-0.129-0.031-0.198v0.001l0.662-0.082
		c0.021-0.01,0.285-0.02,0.307-0.03c0.02-0.01-0.299-0.02-0.277-0.029l-0.167-0.081v-0.001c0-0.073,0.761-0.152,0.911-0.229
		c0.131-0.067,0.494-0.133,0.625-0.201c0.194-0.104,0.5-0.212,0.691-0.319c0.125-0.07,0.309-0.138,0.432-0.21
		c0.212-0.124,0.449-0.255,0.656-0.385c0.1-0.062,0.214-0.12,0.312-0.184c0.305-0.196,0.611-0.398,0.907-0.607
		c1.21-0.855,2.358-1.824,3.405-2.88c0.254-0.256,0.502-0.518,0.745-0.784c0.084-0.092,0.167-0.188,0.249-0.282
		c0.156-0.176,0.312-0.352,0.463-0.533c0.098-0.117,0.191-0.237,0.287-0.355c0.131-0.162,0.262-0.324,0.389-0.49
		c0.1-0.129,0.194-0.261,0.291-0.392c0.092-0.126,0.188-0.248,0.277-0.374l5.465,3.83c-1.027,1.453-2.186,2.833-3.447,4.104
		c-1.256,1.266-2.627,2.435-4.078,3.477L172.515,86.711z M178.777,52.383c-0.07-0.143-0.145-0.283-0.217-0.424
		c-0.071-0.14-0.141-0.281-0.215-0.42c-0.098-0.182-0.199-0.361-0.301-0.541c-0.075-0.134-0.148-0.269-0.226-0.401
		c-0.115-0.195-0.235-0.387-0.356-0.579c-0.069-0.112-0.137-0.226-0.207-0.336c-0.194-0.301-0.395-0.597-0.6-0.888
		c-0.848-1.199-1.81-2.334-2.857-3.377c-0.104-0.102-0.205-0.202-0.31-0.301c-0.017-0.016-0.034-0.033-0.052-0.049
		c-0.007-0.007-0.016-0.015-0.023-0.022c-0.002-0.002-0.004-0.005-0.008-0.007c-0.039-0.038-0.084-0.072-0.123-0.11
		c-0.388-0.363-0.783-0.717-1.191-1.055c-0.051-0.042-0.103-0.081-0.152-0.122c-0.385-0.313-1.254-0.614-1.655-0.904
		c-0.05-0.036-0.622-0.076-0.622-0.111v-0.001l-0.262-0.15l-0.262-0.15v0.001c0-0.089,0.258-0.173,0.125-0.26
		c-0.129-0.084,0.006-0.171-0.125-0.253c-0.184-0.115-0.239-0.225-0.426-0.335c-0.121-0.073-0.176-0.147-0.3-0.218
		c-0.21-0.12-0.39-0.233-0.603-0.347c-0.104-0.056-0.188-0.113-0.292-0.167c-0.318-0.165-0.632-0.323-0.955-0.473
		c-0.122-0.057-0.241-0.113-0.364-0.167c-0.105-0.047-0.213-0.09-0.319-0.136c-0.099-0.042-0.194-0.087-0.293-0.128
		c-0.042-0.017-0.085-0.033-0.126-0.05c-0.173-0.07-0.347-0.136-0.521-0.203c-0.117-0.045-0.235-0.093-0.355-0.136
		c-0.027-0.01-0.057-0.021-0.085-0.031c-0.179-0.065-0.36-0.125-0.542-0.185c-0.112-0.038-0.225-0.078-0.338-0.115
		c-0.031-0.01-0.064-0.02-0.096-0.03c-0.087-0.027-0.174-0.051-0.262-0.078c-0.158-0.048-0.316-0.097-0.476-0.142
		c-0.038-0.011-0.075-0.023-0.112-0.034l0.932-3.481l-0.254-0.067c-1.538-0.408-3.12-0.691-4.704-0.841l0.267-3.066
		c1.765,0.166,3.525,0.48,5.234,0.936c1.795,0.479,3.561,1.118,5.246,1.901c1.683,0.784,3.309,1.722,4.836,2.788
		c1.522,1.062,2.965,2.267,4.285,3.581c1.317,1.31,2.531,2.746,3.608,4.27c1.021,1.446,1.929,2.991,2.702,4.595L178.777,52.383z
		 M52.104,63.941c1.243,1.813,3.298,2.896,5.498,2.896c1.342,0,2.639-0.402,3.751-1.163l10.334-7.067
		c3.68,5.623,2.246,13.193-3.249,17.078l-0.003-0.004l-0.158,0.109c-3.16,2.162-6.847,3.306-10.663,3.306
		c-6.255,0-12.096-3.077-15.624-8.231c-2.854-4.167-3.915-9.196-2.985-14.162s3.736-9.271,7.924-12.139l26.133-17.889
		c3.716,5.675,2.219,13.335-3.406,17.187L53.837,54.694C50.811,56.768,50.033,60.916,52.104,63.941z M111.724,70.316
		c-0.931,4.964-3.739,9.27-7.908,12.124l-26.149,17.903c-1.781-2.716-2.431-5.957-1.831-9.159c0.616-3.287,2.476-6.139,5.236-8.028
		l15.82-10.832c1.467-1.004,2.455-2.52,2.782-4.266c0.327-1.748-0.047-3.517-1.053-4.982c-1.238-1.812-3.291-2.895-5.491-2.895
		c-1.344,0-2.644,0.403-3.757,1.166l-10.8,7.073c-3.692-5.637-2.384-13.269,2.853-17.132v0l0.554-0.055l-0.046-0.003L82,51.164
		v-0.01c3-2.114,7.063-3.23,10.833-3.23c6.254,0,12.237,3.077,15.767,8.231C111.453,60.322,112.653,65.352,111.724,70.316z"/>
	<g>
		<g>
			<path fill="#005A92" d="M218.786,36.479c-1.322,0-2.406,0.269-3.252,0.808c-0.846,0.541-1.272,1.355-1.272,2.445
				c0,1.092,0.427,1.925,1.272,2.501c0.846,0.578,2.651,1.201,5.407,1.867c2.76,0.669,4.837,1.606,6.237,2.811
				c1.401,1.208,2.099,2.984,2.099,5.332c0,2.348-0.886,4.254-2.656,5.717c-1.77,1.463-4.095,2.194-6.968,2.194
				c-4.21,0-7.94-1.45-11.202-4.35l2.848-3.427c2.719,2.362,5.545,3.541,8.472,3.541c1.459,0,2.622-0.313,3.482-0.943
				c0.858-0.628,1.291-1.463,1.291-2.501c0-1.04-0.407-1.848-1.215-2.426c-0.809-0.577-2.199-1.103-4.176-1.578
				c-1.978-0.475-3.478-0.912-4.503-1.31c-1.026-0.397-1.938-0.916-2.734-1.559c-1.592-1.206-2.387-3.054-2.387-5.543
				s0.905-4.408,2.716-5.754c1.808-1.348,4.048-2.021,6.716-2.021c1.718,0,3.428,0.282,5.12,0.846
				c1.691,0.565,3.157,1.361,4.389,2.387l-2.429,3.426c-0.796-0.717-1.873-1.308-3.232-1.77S220.108,36.479,218.786,36.479z"/>
			<path fill="#005A92" d="M234.551,35.287c-0.539-0.54-0.809-1.181-0.809-1.925s0.27-1.386,0.809-1.925
				c0.538-0.539,1.181-0.809,1.923-0.809c0.746,0,1.388,0.27,1.927,0.809c0.539,0.539,0.809,1.181,0.809,1.925
				s-0.27,1.385-0.809,1.925c-0.539,0.539-1.181,0.809-1.927,0.809C235.731,36.096,235.089,35.826,234.551,35.287z M238.591,59.847
				h-4.311V39.368h4.311V59.847z"/>
			<path fill="#005A92" d="M249.144,59.847h-4.311V31.284h4.311V59.847z"/>
			<path fill="#005A92" d="M260.806,59.847l-8.235-20.479h4.461l6.24,15.474l6.234-15.474h4.468l-8.239,20.479H260.806z"/>
			<path fill="#005A92" d="M296.454,51.493h-16.053c0.101,1.488,0.781,2.688,2.037,3.6c1.259,0.912,2.693,1.366,4.313,1.366
				c2.566,0,4.515-0.808,5.849-2.424l2.466,2.694c-2.208,2.285-5.081,3.427-8.625,3.427c-2.873,0-5.318-0.957-7.331-2.868
				c-2.017-1.913-3.022-4.479-3.022-7.7c0-3.219,1.024-5.78,3.08-7.678c2.055-1.9,4.474-2.85,7.255-2.85
				c2.785,0,5.154,0.841,7.105,2.522c1.948,1.681,2.926,3.998,2.926,6.949V51.493z M280.401,48.105h11.739
				c0-1.719-0.54-3.041-1.617-3.965c-1.078-0.924-2.405-1.386-3.985-1.386c-1.575,0-2.997,0.481-4.251,1.444
				C281.028,45.16,280.401,46.463,280.401,48.105z"/>
			<path fill="#005A92" d="M311.927,43.409c-2.13,0-3.734,0.692-4.812,2.079c-1.078,1.386-1.617,3.247-1.617,5.583v8.776h-4.311
				V39.368h4.311v4.118c0.692-1.283,1.639-2.334,2.829-3.156c1.193-0.821,2.456-1.245,3.791-1.271l0.041,4.35
				C312.081,43.409,312.005,43.409,311.927,43.409z"/>
			<path fill="#005A92" d="M325.226,36.479c-1.322,0-2.406,0.269-3.252,0.808c-0.846,0.541-1.271,1.355-1.271,2.445
				c0,1.092,0.426,1.925,1.271,2.501c0.846,0.578,2.65,1.201,5.408,1.867c2.759,0.669,4.836,1.606,6.236,2.811
				c1.4,1.208,2.1,2.984,2.1,5.332c0,2.348-0.888,4.254-2.657,5.717c-1.771,1.463-4.094,2.194-6.967,2.194
				c-4.211,0-7.942-1.45-11.203-4.35l2.848-3.427c2.72,2.362,5.545,3.541,8.471,3.541c1.46,0,2.622-0.313,3.484-0.943
				c0.858-0.628,1.29-1.463,1.29-2.501c0-1.04-0.407-1.848-1.216-2.426c-0.808-0.577-2.199-1.103-4.176-1.578
				c-1.977-0.475-3.478-0.912-4.501-1.31c-1.028-0.397-1.939-0.916-2.735-1.559c-1.592-1.206-2.387-3.054-2.387-5.543
				s0.904-4.408,2.716-5.754c1.807-1.348,4.047-2.021,6.717-2.021c1.716,0,3.427,0.282,5.118,0.846
				c1.692,0.565,3.158,1.361,4.389,2.387l-2.427,3.426c-0.796-0.717-1.874-1.308-3.233-1.77S326.547,36.479,325.226,36.479z"/>
			<path fill="#005A92" d="M345.569,42.831v10.395c0,0.976,0.258,1.751,0.771,2.329c0.513,0.577,1.234,0.866,2.155,0.866
				c0.927,0,1.81-0.45,2.656-1.347l1.773,3.041c-1.517,1.361-3.188,2.041-5.025,2.041c-1.836,0-3.402-0.636-4.695-1.906
				c-1.298-1.271-1.946-2.984-1.946-5.139V42.831h-2.578v-3.463h2.578v-6.43h4.311v6.43h5.392v3.463H345.569z"/>
			<path fill="#005A92" d="M371.622,35.287c-0.538-0.54-0.808-1.181-0.808-1.925s0.27-1.386,0.808-1.925
				c0.539-0.539,1.178-0.809,1.924-0.809c0.742,0,1.384,0.27,1.924,0.809c0.538,0.539,0.808,1.181,0.808,1.925
				s-0.27,1.385-0.808,1.925c-0.54,0.539-1.182,0.809-1.924,0.809C372.8,36.096,372.161,35.826,371.622,35.287z M375.663,59.847
				h-4.311V39.368h4.311V59.847z"/>
			<path fill="#005A92" d="M392.869,39.059c2.744,0,5.093,0.949,7.042,2.85c1.951,1.898,2.927,4.426,2.927,7.583
				s-0.969,5.724-2.905,7.699c-1.938,1.977-4.195,2.965-6.776,2.965c-2.578,0-4.893-1.129-6.948-3.388v10.548h-4.311V39.368h4.311
				v3.58C387.903,40.354,390.122,39.059,392.869,39.059z M386.134,49.645c0,1.952,0.589,3.549,1.77,4.793
				c1.182,1.246,2.615,1.867,4.311,1.867c1.694,0,3.167-0.616,4.427-1.849c1.259-1.231,1.886-2.829,1.886-4.792
				c0-1.964-0.613-3.593-1.849-4.89c-1.23-1.295-2.707-1.944-4.423-1.944c-1.724,0-3.17,0.649-4.352,1.944
				C386.723,46.072,386.134,47.695,386.134,49.645z"/>
			<path fill="#005A92" d="M426.821,51.493H410.77c0.101,1.488,0.783,2.688,2.039,3.6c1.257,0.912,2.694,1.366,4.313,1.366
				c2.562,0,4.515-0.808,5.85-2.424l2.466,2.694c-2.209,2.285-5.082,3.427-8.624,3.427c-2.873,0-5.32-0.957-7.335-2.868
				c-2.015-1.913-3.02-4.479-3.02-7.7c0-3.219,1.024-5.78,3.076-7.678c2.055-1.9,4.474-2.85,7.258-2.85
				c2.786,0,5.154,0.841,7.103,2.522c1.949,1.681,2.926,3.998,2.926,6.949V51.493z M410.77,48.105h11.741
				c0-1.719-0.538-3.041-1.616-3.965c-1.077-0.924-2.406-1.386-3.984-1.386c-1.58,0-2.999,0.481-4.255,1.444
				C411.396,45.16,410.77,46.463,410.77,48.105z"/>
			<path fill="#005A92" d="M366.927,43.409c-2.13,0-3.734,0.692-4.812,2.079c-1.078,1.386-1.617,3.247-1.617,5.583v8.776h-4.311
				V39.368h4.311v4.118c0.692-1.283,1.639-2.334,2.829-3.156c1.193-0.821,2.456-1.245,3.791-1.271l0.041,4.35
				C367.081,43.409,367.005,43.409,366.927,43.409z"/>
		</g>
		<g>
			<path fill="#2BA6CB" d="M222.464,91.012c1.566,0,2.914-0.26,4.041-0.786c1.128-0.526,2.312-1.369,3.54-2.521l2.927,3
				c-2.848,3.158-6.306,4.737-10.372,4.737c-4.069,0-7.444-1.31-10.126-3.929c-2.682-2.616-4.022-5.927-4.022-9.931
				s1.366-7.337,4.101-10.01c2.731-2.665,6.184-4,10.354-4s7.653,1.539,10.455,4.617l-2.889,3.158
				c-1.284-1.234-2.497-2.093-3.641-2.582c-1.14-0.488-2.481-0.732-4.022-0.732c-2.719,0-5.003,0.883-6.852,2.639
				c-1.845,1.76-2.772,4.003-2.772,6.737c0,2.735,0.918,5.017,2.754,6.852C217.771,90.097,219.948,91.012,222.464,91.012z"/>
			<path fill="#2BA6CB" d="M254.494,95.134h-3.929v-2.734c-1.691,2.026-3.966,3.042-6.813,3.042c-2.132,0-3.895-0.602-5.292-1.812
				c-1.399-1.202-2.099-2.812-2.099-4.83c0-2.014,0.745-3.521,2.229-4.523c1.492-0.999,3.503-1.501,6.047-1.501h5.583v-0.768
				c0-2.723-1.517-4.082-4.543-4.082c-1.901,0-3.878,0.693-5.931,2.078l-1.923-2.695c2.487-1.973,5.31-2.963,8.468-2.963
				c2.412,0,4.383,0.607,5.908,1.829c1.529,1.219,2.294,3.136,2.294,5.752V95.134z M250.18,87.509v-1.729h-4.85
				c-3.104,0-4.658,0.975-4.658,2.926c0,1,0.385,1.762,1.152,2.288c0.771,0.525,1.843,0.789,3.218,0.789
				c1.372,0,2.572-0.382,3.6-1.152C249.666,89.859,250.18,88.818,250.18,87.509z"/>
			<path fill="#2BA6CB" d="M271.467,74.346c2.747,0,5.095,0.949,7.046,2.851c1.952,1.898,2.926,4.424,2.926,7.581
				s-0.968,5.724-2.903,7.7c-1.943,1.974-4.198,2.964-6.78,2.964c-2.574,0-4.893-1.128-6.947-3.39v10.551h-4.312v-27.95h4.312v3.581
				C266.505,75.643,268.723,74.346,271.467,74.346z M264.731,84.931c0,1.952,0.589,3.55,1.773,4.793
				c1.178,1.244,2.616,1.868,4.311,1.868c1.691,0,3.168-0.618,4.424-1.849c1.259-1.231,1.886-2.829,1.886-4.79
				c0-1.968-0.614-3.597-1.845-4.894c-1.232-1.294-2.711-1.942-4.428-1.942c-1.72,0-3.17,0.648-4.348,1.942
				C265.32,81.356,264.731,82.979,264.731,84.931z"/>
			<path fill="#2BA6CB" d="M286.636,70.574c-0.539-0.539-0.809-1.182-0.809-1.924c0-0.746,0.27-1.389,0.809-1.927
				c0.539-0.539,1.179-0.808,1.924-0.808s1.385,0.269,1.923,0.808c0.539,0.539,0.81,1.181,0.81,1.927
				c0,0.742-0.271,1.385-0.81,1.924c-0.538,0.538-1.178,0.807-1.923,0.807S287.175,71.112,286.636,70.574z M290.678,95.134h-4.311
				V74.652h4.311V95.134z"/>
			<path fill="#2BA6CB" d="M311.504,89.013c0,1.949-0.708,3.509-2.118,4.675c-1.41,1.171-3.221,1.754-5.426,1.754
				c-1.491,0-3.039-0.269-4.64-0.809c-1.604-0.538-3.022-1.297-4.254-2.271l2.077-3.35c2.388,1.795,4.699,2.694,6.929,2.694
				c0.978,0,1.748-0.226,2.313-0.674c0.563-0.447,0.845-1.021,0.845-1.714c0-1.026-1.359-1.948-4.078-2.77
				c-0.207-0.081-0.364-0.131-0.465-0.156c-4.26-1.152-6.39-3.079-6.39-5.773c0-1.897,0.738-3.418,2.215-4.562
				c1.475-1.143,3.393-1.713,5.755-1.713s4.593,0.691,6.697,2.08l-1.616,3.195c-1.67-1.103-3.478-1.658-5.429-1.658
				c-1.025,0-1.861,0.186-2.504,0.559c-0.639,0.373-0.958,0.93-0.958,1.676c0,0.667,0.332,1.152,0.999,1.46
				c0.46,0.231,1.108,0.451,1.945,0.657c0.833,0.207,1.569,0.408,2.213,0.614c0.638,0.207,1.265,0.439,1.866,0.696
				c0.602,0.256,1.25,0.613,1.942,1.077C310.812,85.623,311.504,87.061,311.504,89.013z"/>
			<path fill="#2BA6CB" d="M321.705,78.117v10.395c0,0.978,0.256,1.751,0.771,2.33c0.513,0.577,1.23,0.865,2.155,0.865
				c0.923,0,1.811-0.451,2.656-1.348l1.77,3.04c-1.513,1.362-3.188,2.042-5.021,2.042c-1.836,0-3.402-0.636-4.699-1.904
				c-1.297-1.271-1.943-2.985-1.943-5.141V78.117h-2.581v-3.465h2.581v-6.428h4.312v6.428h5.388v3.465H321.705z"/>
			<path fill="#2BA6CB" d="M343.224,78.693c-2.131,0-3.735,0.695-4.812,2.08c-1.078,1.385-1.616,3.246-1.616,5.583v8.777h-4.311
				V74.652h4.311v4.119c0.692-1.281,1.638-2.334,2.829-3.154c1.193-0.82,2.456-1.247,3.79-1.271l0.041,4.348
				C343.377,78.693,343.302,78.693,343.224,78.693z"/>
			<path fill="#2BA6CB" d="M364.166,95.134h-3.929v-2.734c-1.691,2.026-3.963,3.042-6.811,3.042c-2.13,0-3.896-0.602-5.295-1.812
				c-1.396-1.202-2.098-2.812-2.098-4.83c0-2.014,0.745-3.521,2.233-4.523c1.488-0.999,3.502-1.501,6.043-1.501h5.582v-0.768
				c0-2.723-1.516-4.082-4.542-4.082c-1.898,0-3.876,0.693-5.928,2.078l-1.924-2.695c2.487-1.973,5.311-2.963,8.465-2.963
				c2.413,0,4.387,0.607,5.912,1.829c1.525,1.219,2.29,3.136,2.29,5.752V95.134z M359.855,87.509v-1.729h-4.85
				c-3.108,0-4.661,0.975-4.661,2.926c0,1,0.389,1.762,1.155,2.288c0.771,0.525,1.842,0.789,3.218,0.789
				c1.371,0,2.568-0.382,3.597-1.152C359.341,89.859,359.855,88.818,359.855,87.509z"/>
			<path fill="#2BA6CB" d="M374.482,84.044v11.09h-4.311V74.652h4.311v3.734c0.692-1.256,1.65-2.243,2.866-2.964
				c1.222-0.718,2.537-1.077,3.947-1.077c2.312,0,4.18,0.707,5.602,2.117s2.137,3.452,2.137,6.122v12.549h-4.311v-11.24
				c0-3.774-1.566-5.66-4.699-5.66c-1.484,0-2.783,0.495-3.885,1.481C375.033,80.705,374.482,82.146,374.482,84.044z"/>
			<path fill="#2BA6CB" d="M412.169,92.381c-2.052,2.04-4.62,3.061-7.696,3.061c-3.083,0-5.649-1.021-7.701-3.061
				c-2.055-2.04-3.082-4.536-3.082-7.487s1.027-5.448,3.082-7.487c2.052-2.04,4.618-3.061,7.701-3.061
				c3.076,0,5.645,1.021,7.696,3.061c2.052,2.039,3.08,4.536,3.08,7.487S414.221,90.341,412.169,92.381z M399.829,89.724
				c1.223,1.244,2.77,1.868,4.644,1.868c1.873,0,3.418-0.624,4.637-1.868c1.218-1.243,1.829-2.854,1.829-4.83
				c0-1.978-0.611-3.588-1.829-4.834c-1.219-1.241-2.764-1.864-4.637-1.864c-1.874,0-3.421,0.623-4.644,1.864
				c-1.215,1.246-1.826,2.856-1.826,4.834C398.003,86.87,398.614,88.48,399.829,89.724z"/>
		</g>
	</g>
</g>
</svg>
